HIERARCHY
ROOT Hips
{
    OFFSET   0.000000   0.000000   0.000000
    CHANNELS 6 Xposition Yposition Zposition Zrotation Xrotation Yrotation
    JOINT Chest
    {
        OFFSET   0.000000   8.007230   0.000000
        CHANNELS 3 Zrotation Xrotation Yrotation
        JOINT Chest2
        {
            OFFSET   0.000000  22.077100   0.000000
            CHANNELS 3 Zrotation Xrotation Yrotation
            JOINT Neck
            {
                OFFSET   0.000000  23.255100   0.000000
                CHANNELS 3 Zrotation Xrotation Yrotation
                JOINT Head
                {
                    OFFSET   0.000000  14.370100   1.956600
                    CHANNELS 3 Zrotation Xrotation Yrotation
                    End Site
                    {
                        OFFSET   0.000000  19.566000   0.000000
                    }
                }
            }
            JOINT LeftCollar
            {
                OFFSET   3.911900  19.017000  -0.467063
                CHANNELS 3 Zrotation Xrotation Yrotation
                JOINT LeftShoulder
                {
                    OFFSET  10.383700   0.000000   0.000000
                    CHANNELS 3 Zrotation Xrotation Yrotation
                    JOINT LeftElbow
                    {
                        OFFSET  26.662100   0.001193   0.000980
                        CHANNELS 3 Zrotation Xrotation Yrotation
                        JOINT LeftWrist
                        {
                            OFFSET  28.869000  -0.000059  -0.000082
                            CHANNELS 3 Zrotation Xrotation Yrotation
                            JOINT LeftFinger0
                            {
                                OFFSET   2.044650  -2.323450   3.252850
                                CHANNELS 3 Zrotation Xrotation Yrotation
                                JOINT LeftFinger01
                                {
                                    OFFSET   3.088130   0.000000   0.000000
                                    CHANNELS 3 Zrotation Xrotation Yrotation
                                    JOINT LeftFinger02
                                    {
                                        OFFSET   2.639460   0.000000   0.000000
                                        CHANNELS 3 Zrotation Xrotation Yrotation
                                        End Site
                                        {
                                            OFFSET   2.582190   0.000000   0.000000
                                        }
                                    }
                                }
                            }
                            JOINT LeftFinger1
                            {
                                OFFSET   8.364480   0.000000   3.252850
                                CHANNELS 3 Zrotation Xrotation Yrotation
                                JOINT LeftFinger11
                                {
                                    OFFSET   4.646930   0.000000   0.000000
                                    CHANNELS 3 Zrotation Xrotation Yrotation
                                    JOINT LeftFinger12
                                    {
                                        OFFSET   2.323470   0.000000   0.000000
                                        CHANNELS 3 Zrotation Xrotation Yrotation
                                        End Site
                                        {
                                            OFFSET   2.273050   0.000000   0.000000
                                        }
                                    }
                                }
                            }
                            JOINT LeftFinger2
                            {
                                OFFSET   8.364490   0.000016   1.078090
                                CHANNELS 3 Zrotation Xrotation Yrotation
                                JOINT LeftFinger21
                                {
                                    OFFSET   5.111610   0.000000   0.000000
                                    CHANNELS 3 Zrotation Xrotation Yrotation
                                    JOINT LeftFinger22
                                    {
                                        OFFSET   2.788150   0.000016   0.000000
                                        CHANNELS 3 Zrotation Xrotation Yrotation
                                        End Site
                                        {
                                            OFFSET   2.727660   0.000000   0.000000
                                        }
                                    }
                                }
                            }
                            JOINT LeftFinger3
                            {
                                OFFSET   7.899780   0.000015  -1.078090
                                CHANNELS 3 Zrotation Xrotation Yrotation
                                JOINT LeftFinger31
                                {
                                    OFFSET   4.646930   0.000000   0.000000
                                    CHANNELS 3 Zrotation Xrotation Yrotation
                                    JOINT LeftFinger32
                                    {
                                        OFFSET   2.323470   0.000000   0.000000
                                        CHANNELS 3 Zrotation Xrotation Yrotation
                                        End Site
                                        {
                                            OFFSET   2.273050   0.000000   0.000000
                                        }
                                    }
                                }
                            }
                            JOINT LeftFinger4
                            {
                                OFFSET   7.435090   0.000000  -3.252850
                                CHANNELS 3 Zrotation Xrotation Yrotation
                                JOINT LeftFinger41
                                {
                                    OFFSET   3.717550   0.000000   0.000000
                                    CHANNELS 3 Zrotation Xrotation Yrotation
                                    JOINT LeftFinger42
                                    {
                                        OFFSET   1.858770   0.000000   0.000000
                                        CHANNELS 3 Zrotation Xrotation Yrotation
                                        End Site
                                        {
                                            OFFSET   1.818440   0.000000   0.000000
                                        }
                                    }
                                }
                            }
                        }
                    }
                }
            }
            JOINT RightCollar
            {
                OFFSET  -3.911910  19.017000  -0.467062
                CHANNELS 3 Zrotation Xrotation Yrotation
                JOINT RightShoulder
                {
                    OFFSET -10.383700   0.000014   0.000000
                    CHANNELS 3 Zrotation Xrotation Yrotation
                    JOINT RightElbow
                    {
                        OFFSET -26.662100   0.001225   0.001091
                        CHANNELS 3 Zrotation Xrotation Yrotation
                        JOINT RightWrist
                        {
                            OFFSET -28.869000  -0.000020  -0.000085
                            CHANNELS 3 Zrotation Xrotation Yrotation
                            JOINT RightFinger0
                            {
                                OFFSET  -2.044650  -2.323490   3.252850
                                CHANNELS 3 Zrotation Xrotation Yrotation
                                JOINT RightFinger01
                                {
                                    OFFSET  -3.088130   0.000000   0.000000
                                    CHANNELS 3 Zrotation Xrotation Yrotation
                                    JOINT RightFinger02
                                    {
                                        OFFSET  -2.639460   0.000000   0.000000
                                        CHANNELS 3 Zrotation Xrotation Yrotation
                                        End Site
                                        {
                                            OFFSET  -2.582190   0.000000   0.000000
                                        }
                                    }
                                }
                            }
                            JOINT RightFinger1
                            {
                                OFFSET  -8.364480   0.000000   3.252850
                                CHANNELS 3 Zrotation Xrotation Yrotation
                                JOINT RightFinger11
                                {
                                    OFFSET  -4.646930   0.000000   0.000000
                                    CHANNELS 3 Zrotation Xrotation Yrotation
                                    JOINT RightFinger12
                                    {
                                        OFFSET  -2.323470   0.000000   0.000000
                                        CHANNELS 3 Zrotation Xrotation Yrotation
                                        End Site
                                        {
                                            OFFSET  -2.273050   0.000000   0.000000
                                        }
                                    }
                                }
                            }
                            JOINT RightFinger2
                            {
                                OFFSET  -8.364480   0.000000   1.078090
                                CHANNELS 3 Zrotation Xrotation Yrotation
                                JOINT RightFinger21
                                {
                                    OFFSET  -5.111620   0.000000   0.000000
                                    CHANNELS 3 Zrotation Xrotation Yrotation
                                    JOINT RightFinger22
                                    {
                                        OFFSET  -2.788160   0.000000   0.000000
                                        CHANNELS 3 Zrotation Xrotation Yrotation
                                        End Site
                                        {
                                            OFFSET  -2.727660   0.000000   0.000000
                                        }
                                    }
                                }
                            }
                            JOINT RightFinger3
                            {
                                OFFSET  -7.899780   0.000000  -1.078090
                                CHANNELS 3 Zrotation Xrotation Yrotation
                                JOINT RightFinger31
                                {
                                    OFFSET  -4.646930   0.000000   0.000000
                                    CHANNELS 3 Zrotation Xrotation Yrotation
                                    JOINT RightFinger32
                                    {
                                        OFFSET  -2.323470   0.000000   0.000000
                                        CHANNELS 3 Zrotation Xrotation Yrotation
                                        End Site
                                        {
                                            OFFSET  -2.273050   0.000000   0.000000
                                        }
                                    }
                                }
                            }
                            JOINT RightFinger4
                            {
                                OFFSET  -7.435090   0.000000  -3.252850
                                CHANNELS 3 Zrotation Xrotation Yrotation
                                JOINT RightFinger41
                                {
                                    OFFSET  -3.717550   0.000000   0.000000
                                    CHANNELS 3 Zrotation Xrotation Yrotation
                                    JOINT RightFinger42
                                    {
                                        OFFSET  -1.858760   0.000000   0.000000
                                        CHANNELS 3 Zrotation Xrotation Yrotation
                                        End Site
                                        {
                                            OFFSET  -1.818440   0.000000   0.000000
                                        }
                                    }
                                }
                            }
                        }
                    }
                }
            }
        }
    }
    JOINT LeftHip
    {
        OFFSET   9.783030   0.000000   0.000000
        CHANNELS 3 Zrotation Xrotation Yrotation
        JOINT LeftKnee
        {
            OFFSET   0.000063 -41.789100   0.000608
            CHANNELS 3 Zrotation Xrotation Yrotation
            JOINT LeftAnkle
            {
                OFFSET   0.000048 -41.133200  -0.000184
                CHANNELS 3 Zrotation Xrotation Yrotation
                JOINT LeftToe
                {
                    OFFSET   0.000000  -6.358960  14.674500
                    CHANNELS 3 Zrotation Xrotation Yrotation
                    End Site
                    {
                        OFFSET   0.000000   0.000000   3.913200
                    }
                }
            }
        }
    }
    JOINT RightHip
    {
        OFFSET  -9.783030   0.000000   0.000000
        CHANNELS 3 Zrotation Xrotation Yrotation
        JOINT RightKnee
        {
            OFFSET   0.000071 -41.789100   0.001239
            CHANNELS 3 Zrotation Xrotation Yrotation
            JOINT RightAnkle
            {
                OFFSET   0.000037 -41.133200  -0.000166
                CHANNELS 3 Zrotation Xrotation Yrotation
                JOINT RightToe
                {
                    OFFSET   0.000000  -6.358960  14.674500
                    CHANNELS 3 Zrotation Xrotation Yrotation
                    End Site
                    {
                        OFFSET   0.000000   0.000000   3.913200
                    }
                }
            }
        }
    }
}
MOTION
Frames: 4
Frame Time:   0.016667
 -1.165170  89.354500   0.399820  -3.785590 -13.449700  -5.262130   2.301560   7.979110  -0.028524   4.676260  15.950500  -0.390063   2.130200   1.640800  -0.060974   3.507610   3.313130  -1.732620  -6.630610  -1.961580  -0.952314 -71.063000  25.281400  -3.504270  -3.807780  -9.160770 -16.700700  15.380100 -16.680200   4.790900  43.298900  32.527800 -67.536300 -23.139800   0.089255   0.038172  -6.569980   0.070183   0.000252 -27.352500   5.245330 -10.022100 -22.755900  -0.022036   0.095237 -15.929100  -0.029456   0.061677 -28.164300   0.416072  -0.777079 -33.159800  -0.041044   0.094421 -22.084500  -0.046585   0.049696 -27.890000   0.412350  -0.779057 -31.328700   0.031972   0.022993 -20.864900  -0.001031   0.030014 -29.564700   0.434992  -0.766671 -44.351400   0.001311   0.013538 -29.538000  -0.019386   0.010582  11.140500  -2.217060   8.853480  41.944400  14.903900  54.974600 -46.681100 -19.397500  55.508000 -54.985700  27.240400  15.859100 -56.582500  46.014300  84.761100  24.117300   0.001116  -0.001487   7.058670   0.000322  -0.000874   9.732340  -0.166099  -1.067330   7.973600   0.000132   0.000188   5.581510   0.000103   0.000302   7.603900  -1.850030 -13.610600   7.833520   0.002215   0.007377   5.217110   0.001491   0.008424   5.326210  -1.342790 -14.163000   5.491050   0.005440   0.005988   3.657050  -0.012827   0.003565  15.177000  -5.303670 -18.835400  24.108000   0.003176   0.005330  16.055900  -0.006370   0.005166   2.446110  18.123500   3.584340   1.501330   0.000960   4.163770  -2.182380  -4.687540   0.631656  -0.000000   0.000000   0.000000   4.263600  16.186900  -5.892490  -0.239491   1.976190  -3.429140  -1.772650  -5.169310   4.190550   0.000000   0.000000   0.000000
 -1.136750  89.362200   0.417768  -3.723080 -13.416300  -5.088740   2.288010   7.970020  -0.026315   4.647440  15.932500  -0.379725   2.011380   1.612460  -0.056558   3.308630   3.257290  -1.721940  -6.686300  -2.054980  -1.012850 -71.053500  25.384400  -3.514860  -3.755010  -9.165090 -16.680400  15.368000 -16.600500   4.827360  43.315100  32.575800 -67.556900 -23.173300   0.062773   0.026879  -6.587840   0.052555  -0.003813 -27.343000   5.226900  -9.991950 -22.744800  -0.018298   0.090918 -15.921400  -0.028071   0.058571 -28.159300   0.410023  -0.766061 -33.121500  -0.032483   0.072774 -22.058900  -0.037229   0.037545 -27.886300   0.406376  -0.768002 -31.305400   0.056909   0.022463 -20.849400   0.007858   0.047713 -29.552700   0.428459  -0.755889 -44.333200   0.022036   0.044933 -29.525900  -0.027442   0.025889  11.335600  -2.083670   8.981380  43.280200  15.257900  55.085300 -47.579500 -21.199000  53.891000 -54.113800  27.944800  14.490400 -57.310000  45.889900  85.300900  23.023100   0.009677  -0.006226   6.511560   0.000120  -0.000702   9.754310   0.065232   0.317010   7.989870  -0.000087   0.000269   5.592890  -0.000036   0.000559   7.684480  -1.757740 -12.983200   7.896520  -0.000450   0.007011   5.259080   0.000703   0.008581   5.420840  -1.413570 -14.426600   5.604680   0.000875   0.006352   3.732720  -0.011766   0.003988  15.481800  -4.888720 -17.184000  24.291900   0.002966   0.003847  16.178400  -0.005527   0.003826   2.443380  18.069700   3.546760   1.476440   0.001363   4.062930  -2.180590  -4.676070   0.602924   0.000000   0.000000  -0.000000   4.235570  16.172300  -5.918880  -0.227424   1.967840  -3.473720  -1.778400  -5.201070   4.088690   0.000000   0.000000  -0.000000
 -1.106980  89.370900   0.439247  -3.662540 -13.383000  -4.933660   2.264090   7.947640  -0.025998   4.599280  15.887900  -0.378169   1.910030   1.592850  -0.053089   3.145240   3.218740  -1.647800  -6.730490  -2.092010  -1.035920 -71.047700  25.482100  -3.528000  -3.707470  -9.170080 -16.645700  15.359900 -16.474800   4.851710  43.314100  32.589500 -67.553600 -23.193300   0.036291   0.015587  -6.596640   0.034928  -0.012836 -27.329600   5.219230  -9.983060 -22.733800  -0.012301   0.076877 -15.913700  -0.023764   0.049114 -28.154100   0.409158  -0.764487 -33.083200  -0.015887   0.023308 -22.033400  -0.015910   0.010207 -27.882500   0.405523  -0.766422 -31.282000   0.101762   0.018754 -20.833800   0.036624   0.068705 -29.540500   0.427526  -0.754349 -44.315100   0.074111   0.080226 -29.513800  -0.032746   0.063967  11.459600  -1.834260   9.079570  43.816800  15.525100  55.165100 -48.435500 -22.416200  52.294200 -53.513600  28.509300  14.150000 -58.069400  45.804700  85.874400  22.285500   0.010900  -0.006903   6.142740  -0.000399  -0.000174   9.744690   0.356203   2.047280   7.992200  -0.000219   0.000341   5.594510  -0.000119   0.000817   7.857640  -1.615650 -11.590000   8.041580  -0.004517   0.006560   5.355690  -0.000723   0.008652   5.629020  -1.484140 -14.690300   5.835060  -0.005588   0.006694   3.886140  -0.010571   0.004430  15.773700  -4.526880 -15.625100  24.629200   0.002529   0.002368  16.403100  -0.004611   0.002471   2.425960  18.010900   3.521380   1.456220   0.002791   3.964090  -2.174750  -4.667610   0.580463   0.000000   0.000000  -0.000000   4.203610  16.154900  -5.929680  -0.220471   1.962500  -3.505480  -1.781140  -5.230790   3.972080  -0.000000   0.000000  -0.000000
 -1.072310  89.378200   0.463317  -3.611610 -13.352900  -4.810280   2.242670   7.913030  -0.038690   4.557040  15.818200  -0.400360   1.827650   1.577220  -0.050310   3.000390   3.188100  -1.350130  -6.758000  -2.069230  -1.024620 -71.082200  25.518000  -3.532160  -3.669240  -9.151260 -16.607300  15.371900 -16.368400   4.853520  43.250100  32.519500 -67.505000 -23.203000   0.046577   0.016696  -6.598590   0.056100  -0.044167 -27.355700   5.233120  -9.999890 -22.756900  -0.007008   0.051312 -15.929800  -0.015588   0.032761 -28.162400   0.416281  -0.777471 -33.146300   0.007692  -0.049029 -22.075500   0.017666  -0.027989 -27.894500   0.412643  -0.779407 -31.356100   0.192831  -0.027989 -20.883300   0.098411   0.092185 -29.594900   0.435726  -0.766726 -44.397100   0.165071   0.110851 -29.568200  -0.029117   0.130537  11.522600  -1.559270   9.147880  44.241500  15.256500  54.944100 -48.616300 -22.626800  51.570200 -53.338300  28.890700  14.271700 -58.573100  45.603600  86.702800  21.382800   0.009279  -0.006129   5.691390  -0.001223   0.001045   9.611300   0.654815   3.815640   7.894100  -0.000358   0.000404   5.525850  -0.000220   0.001087   8.115110  -1.376640  -9.615230   8.250480  -0.007069   0.006037   5.494820  -0.002111   0.008659   5.920900  -1.483420 -14.232400   6.124690  -0.008259   0.007027   4.079040  -0.009399   0.004880  16.153400  -4.132250 -14.011400  25.058700   0.002269   0.000891  16.689100  -0.003701   0.001054   2.406380  17.935900   3.511520   1.440040   0.036281   3.881590  -2.161910  -4.680430   0.556735   0.000000   0.000000  -0.000000   4.170980  16.130000  -5.899470  -0.220770   1.966520  -3.542280  -1.778090  -5.257940   3.851600   0.000000   0.000000   0.000000
